<svg id="Layer_1" data-name="Layer 1" xmlns="http://www.w3.org/2000/svg" xmlns:xlink="http://www.w3.org/1999/xlink" viewBox="0 0 884.96 564.65"><defs><style>.cls-1{fill:none;}.cls-2{fill:url(#linear-gradient);}.cls-3{clip-path:url(#clip-path);}.cls-4{opacity:0.7;}.cls-5{fill:url(#linear-gradient-2);}.cls-6{fill:url(#linear-gradient-3);}.cls-7{fill:url(#linear-gradient-4);}</style><linearGradient id="linear-gradient" x1="892.78" y1="13.59" x2="22.52" y2="533.43" gradientUnits="userSpaceOnUse"><stop offset="0" stop-color="#f5752f"/><stop offset="1" stop-color="#ef271b"/></linearGradient><clipPath id="clip-path"><rect class="cls-1" x="487.04" width="396.4" height="504.72"/></clipPath><linearGradient id="linear-gradient-2" x1="670.44" y1="311.5" x2="1047.91" y2="24.17" xlink:href="#linear-gradient"/><linearGradient id="linear-gradient-3" x1="645.09" y1="278.2" x2="1022.57" y2="-9.13" xlink:href="#linear-gradient"/><linearGradient id="linear-gradient-4" x1="670.44" y1="311.5" x2="1047.91" y2="24.17" xlink:href="#linear-gradient"/></defs><title>Artboard 1</title><path class="cls-2" d="M885,.5V564.65c-47.52-22.33-113.36-46.59-193.39-56.49-167.65-20.72-252.88,39.49-421.33,39.72-64.58.08-156.7-8.63-269.38-50.7V332.9H0V.5Z"/><g class="cls-3"><g class="cls-4"><path class="cls-5" d="M741.42,276.88l52.47-51.82A81,81,0,1,0,801,238.4Z"/><polygon class="cls-6" points="1010.8 74.81 913.32 74.23 913.32 74.23 913.32 74.23 913.32 74.23 915.7 -25.13 818.18 69.17 822.7 132.48 698.55 255.02 730.92 287.39 857.7 162.23 920.54 165.88 1010.8 74.81"/><path class="cls-7" d="M927.51,185.55H860.74a158.2,158.2,0,0,1,24,84c0,87.8-71.43,159.23-159.23,159.23S566.33,357.34,566.33,269.54s71.43-159.23,159.23-159.23A158.25,158.25,0,0,1,798.32,128l-9.15-67.72a218.1,218.1,0,0,0-63.61-9.46c-120.62,0-218.74,98.13-218.74,218.74s98.12,218.74,218.74,218.74S944.3,390.16,944.3,269.54A217.52,217.52,0,0,0,927.51,185.55Z"/></g></g></svg>