<svg xmlns="http://www.w3.org/2000/svg" viewBox="0 0 202.24 57.57"><defs><style>.cls-1,.cls-2{fill:#fff;}.cls-2{font-size:48.18px;font-family:NeoSansCyr-Medium, Neo Sans Cyr Medium;}</style></defs><title>Asset 7</title><g id="Layer_2" data-name="Layer 2"><g id="Layer_1-2" data-name="Layer 1"><path class="cls-1" d="M26.31,33.87l5.88-5.81A9.1,9.1,0,1,0,33,29.55Z"/><polygon class="cls-1" points="56.52 11.21 45.59 11.14 45.59 11.14 45.59 11.14 45.59 11.14 45.85 0 34.92 10.57 35.42 17.67 21.5 31.41 25.13 35.05 39.35 21.01 46.39 21.42 56.52 11.21"/><path class="cls-1" d="M47.18,23.63H39.69A17.67,17.67,0,0,1,42.38,33a17.86,17.86,0,1,1-9.69-15.87l-1-7.59A24.52,24.52,0,1,0,47.18,23.63Z"/><text class="cls-2" transform="translate(66.91 44.59)">Live it</text></g></g></svg>