<svg xmlns="http://www.w3.org/2000/svg" viewBox="0 0 56.6 56.47"><defs><style>.cls-1{fill:#fff;}</style></defs><title>Asset 13_1</title><g id="Layer_2" data-name="Layer 2"><g id="Layer_1-2" data-name="Layer 1"><path class="cls-1" d="M55.33,44.66l-8.74-8.74a4.57,4.57,0,0,0-6.43.12l-4.4,4.41L34.89,40A43.65,43.65,0,0,1,24.3,32.3a43.78,43.78,0,0,1-7.68-10.61l-.47-.85,3-2.95,1.46-1.45A4.56,4.56,0,0,0,20.67,10L11.93,1.27a4.55,4.55,0,0,0-6.43.12L3.05,3.87l.06.06a14.13,14.13,0,0,0-2,3.58,14.78,14.78,0,0,0-.9,3.64C-1,20.71,3.4,29.46,15.26,41.33c16.4,16.39,29.62,15.16,30.19,15.1a14.93,14.93,0,0,0,3.65-.92,13.85,13.85,0,0,0,3.56-2l.05,0,2.5-2.45a4.57,4.57,0,0,0,.12-6.43Z"/></g></g></svg>