<svg xmlns="http://www.w3.org/2000/svg" xmlns:xlink="http://www.w3.org/1999/xlink" viewBox="0 0 132.48 134.96"><defs><style>.cls-1{fill:url(#linear-gradient);}.cls-2{fill:url(#linear-gradient-2);}.cls-3{fill:url(#linear-gradient-3);}</style><linearGradient id="linear-gradient" x1="43.01" y1="88.49" x2="142.23" y2="12.96" gradientUnits="userSpaceOnUse"><stop offset="0" stop-color="#f5752f"/><stop offset="1" stop-color="#ef271b"/></linearGradient><linearGradient id="linear-gradient-2" x1="36.35" y1="79.73" x2="135.57" y2="4.21" xlink:href="#linear-gradient"/><linearGradient id="linear-gradient-3" x1="43.01" y1="88.49" x2="142.23" y2="12.96" xlink:href="#linear-gradient"/></defs><title>Asset 6</title><g id="Layer_2" data-name="Layer 2"><g id="Layer_1-2" data-name="Layer 1"><path class="cls-1" d="M61.67,79.39,75.46,65.76a21.2,21.2,0,1,0,1.86,3.51Z"/><polygon class="cls-2" points="132.48 26.27 106.85 26.12 106.85 26.12 106.85 26.12 106.85 26.12 107.48 0 81.84 24.79 83.03 41.43 50.4 73.64 58.91 82.15 92.23 49.25 108.75 50.21 132.48 26.27"/><path class="cls-3" d="M110.58,55.38H93A41.93,41.93,0,1,1,76.62,40.25l-2.4-17.8a57.54,57.54,0,1,0,36.36,32.93Z"/></g></g></svg>