<svg xmlns="http://www.w3.org/2000/svg" xmlns:xlink="http://www.w3.org/1999/xlink" viewBox="0 0 1463.2 853.74"><defs><style>.cls-1{fill:none;}.cls-2{fill:url(#linear-gradient);}.cls-3{clip-path:url(#clip-path);}.cls-4{opacity:0.7;}.cls-5{fill:url(#linear-gradient-2);}.cls-6{fill:url(#linear-gradient-3);}.cls-7{fill:url(#linear-gradient-4);}</style><linearGradient id="linear-gradient" x1="1292.36" y1="56.05" x2="32.59" y2="808.55" gradientUnits="userSpaceOnUse"><stop offset="0" stop-color="#f5752f"/><stop offset="1" stop-color="#ef271b"/></linearGradient><clipPath id="clip-path"><rect class="cls-1" x="705.02" y="36.38" width="573.8" height="730.61"/></clipPath><linearGradient id="linear-gradient-2" x1="970.49" y1="487.29" x2="1516.91" y2="71.36" xlink:href="#linear-gradient"/><linearGradient id="linear-gradient-3" x1="933.81" y1="439.09" x2="1480.22" y2="23.16" xlink:href="#linear-gradient"/><linearGradient id="linear-gradient-4" x1="970.49" y1="487.29" x2="1516.91" y2="71.36" xlink:href="#linear-gradient"/></defs><title>Asset 13</title><g id="Layer_2" data-name="Layer 2"><g id="Layer_1-2" data-name="Layer 1"><path class="cls-2" d="M1281,37.1V853.74c-68.79-32.32-164.1-67.44-280-81.77-242.67-30-366.05,57.17-609.9,57.5C297.7,829.58,164.36,817,1.25,756.08V518.27H0V37.1Z"/><g class="cls-3"><g class="cls-4"><path class="cls-5" d="M1073.25,437.18l76-75a117.25,117.25,0,1,0,10.22,19.31Z"/><polygon class="cls-6" points="1463.2 144.67 1322.09 143.84 1322.09 143.84 1322.09 143.84 1322.09 143.84 1325.53 0 1184.36 136.5 1190.91 228.15 1011.19 405.53 1058.04 452.39 1241.57 271.21 1332.53 276.5 1463.2 144.67"/><path class="cls-7" d="M1342.62,305H1246a229.1,229.1,0,0,1,34.8,121.59c0,127.09-103.4,230.48-230.49,230.48S819.8,553.65,819.8,426.56s103.39-230.5,230.49-230.5a229,229,0,0,1,105.32,25.58l-13.24-98a315.59,315.59,0,0,0-92.08-13.7c-174.6,0-316.65,142.05-316.65,316.65S875.69,743.2,1050.29,743.2s316.64-142.05,316.64-316.64A314.83,314.83,0,0,0,1342.62,305Z"/></g></g></g></g></svg>