<svg xmlns="http://www.w3.org/2000/svg" xmlns:xlink="http://www.w3.org/1999/xlink" viewBox="0 0 512.92 378.55"><defs><style>.cls-1{fill:none;}.cls-2{opacity:0.4;}.cls-3{fill:url(#linear-gradient);}.cls-4{opacity:0.1;}.cls-5{fill:url(#linear-gradient-2);}.cls-6{clip-path:url(#clip-path);}.cls-7{fill:#ffc09d;}.cls-8{fill:#ffa472;}.cls-9{clip-path:url(#clip-path-2);}.cls-10{fill:#ffb085;}.cls-11{fill:#484f55;}.cls-12{fill:#999;}.cls-13{fill:#67a0c3;}.cls-14{fill:#7dbada;}.cls-15{fill:#333;}.cls-16{fill:#fff;}.cls-17{fill:url(#linear-gradient-3);}.cls-18{fill:url(#linear-gradient-4);}.cls-19{fill:url(#linear-gradient-5);}.cls-20{fill:url(#linear-gradient-6);}.cls-21{fill:url(#linear-gradient-7);}.cls-22{clip-path:url(#clip-path-3);}.cls-23{fill:#f4662b;}.cls-24{opacity:0.2;}</style><linearGradient id="linear-gradient" x1="-72.83" y1="215.42" x2="442.64" y2="215.42" gradientTransform="translate(182.04 -110.06) rotate(25.11)" gradientUnits="userSpaceOnUse"><stop offset="0" stop-color="#f55700"/><stop offset="1" stop-color="#ef271b"/></linearGradient><linearGradient id="linear-gradient-2" x1="84.85" y1="146.37" x2="276.84" y2="146.37" gradientTransform="matrix(1, 0, 0, 1, 0, 0)" xlink:href="#linear-gradient"/><clipPath id="clip-path" transform="translate(-2.01)"><path class="cls-1" d="M496.81,259.11c-9.76,14.14-23.08,25.58-39.09,31.73-19.46,7.48-40.94,6.84-61.57,9.93a101.36,101.36,0,0,0-24.9,6.72,65.55,65.55,0,0,0-12.82,7.18c-5.56,4.05-9.26,8.84-13.2,14.34-2,2.73-4.62,4.85-6.61,7.55s-3.64,5.95-6,8.5c-3.25,3.47-7.78,6.14-11.73,8.74a68.38,68.38,0,0,1-14.23,7.44,40.92,40.92,0,0,1-27.51.09c-17.35-6-30.86-19.52-43.27-33s-24.77-27.8-41.18-36c-31.79-15.92-70.84-5.58-104.71-16.38C68.22,269,50,253.66,35.68,235.87c-29.81-37.14-43.82-88.19-30.81-134S60.34,18.44,107.93,17c27.64-.86,97.6-24.36,122.17-11.65S256.32,46.37,282.24,56c2.55.95,158.56-7.56,111.52-2.9-37.43,3.7-51,39-13.3,34.41,9.35-1.15,18.65-2.64,27.84-4.39,16-3,32.7-6.86,48.22-2,19.71,6.23,32.59,25,41.41,43.74,13.63,29,21.28,61.65,15.69,93.13A105.23,105.23,0,0,1,496.81,259.11Z"/></clipPath><clipPath id="clip-path-2" transform="translate(-2.01)"><path class="cls-1" d="M249.71,115a83.35,83.35,0,0,1,2.86-24.39c2.16-8.21,5.65-16.41,12-22a8.5,8.5,0,0,1,4-2.25c2.79-.47,5.51,1.58,6.73,4.13s1.26,5.48,1.21,8.3c-.31,16.63-1.95,32.59.56,49.14,2.84,18.74,16.25,34.58,19.78,53.32,3.32,17.67,5.54,40.2,15.86,55.42,3,4.4,7.08,8.38,8,13.62,1,5.89-2.29,11.59-5.67,16.52a213.62,213.62,0,0,1-28.77,33.77c-2.57,2.45-6.13,5-9.35,3.53-1.8-.83-2.85-2.69-3.83-4.41-7.59-13.31-15.53-22.43-29.53-28.14a96.66,96.66,0,0,1-35.93-25.72c-11.23-12.78-13.23-20.42-8.21-36.59.94-3,2.15-6.1,4.35-8.41,10.31-10.87,28-6.07,40.46-12.57,14.3-7.45,19.94-28.6,13.2-42.81A77.18,77.18,0,0,1,249.71,115Z"/></clipPath><linearGradient id="linear-gradient-3" x1="309.75" y1="109.39" x2="336.05" y2="109.39" gradientUnits="userSpaceOnUse"><stop offset="0" stop-color="#f5752f"/><stop offset="1" stop-color="#ef271b"/></linearGradient><linearGradient id="linear-gradient-4" x1="265.81" y1="114.58" x2="288.53" y2="114.58" xlink:href="#linear-gradient-3"/><linearGradient id="linear-gradient-5" x1="275.87" y1="107.02" x2="298.58" y2="107.02" xlink:href="#linear-gradient-3"/><linearGradient id="linear-gradient-6" x1="232.5" y1="109.84" x2="254.99" y2="109.84" xlink:href="#linear-gradient-3"/><linearGradient id="linear-gradient-7" x1="219.58" y1="112.69" x2="242.07" y2="112.69" xlink:href="#linear-gradient-3"/><clipPath id="clip-path-3" transform="translate(-2.01)"><path class="cls-1" d="M266.15,293.59c12.07-9.34,36.77-30.2,52.17-55.31a8.62,8.62,0,0,1,12.94-2L431.39,322l-35.68,14.92-72.1,35L264.9,305.7A8.41,8.41,0,0,1,266.15,293.59Z"/></clipPath></defs><title>Asset 10</title><g id="Layer_2" data-name="Layer 2"><g id="Layer_1-2" data-name="Layer 1"><g class="cls-2"><path class="cls-3" d="M496.27,259.22c-9.76,14.14-23.08,25.58-39.09,31.73-19.45,7.47-40.94,6.84-61.57,9.92a102,102,0,0,0-24.9,6.73,65.55,65.55,0,0,0-12.82,7.18c-11.31,8.2-17,21.62-26.89,31.16-13.65,13.2-33.74,21.92-52.42,15.49-17.35-6-30.86-19.51-43.27-33s-24.77-27.79-41.18-36c-31.79-15.92-70.84-5.58-104.71-16.38-21.74-6.93-40-22.26-54.28-40C-4.19,187,.84,114.25,4.33,102,17.34,56.17,59.8,1.52,107.39.05c27.64-.86,54.38,9.66,79,22.37s48,27.86,73.93,37.5c2.55.95,5.12,1.83,7.7,2.66,35.79,11.6,74.28,12.63,112,8,9.36-1.16,18.65-2.65,27.84-4.4,16-3,32.7-6.86,48.22-2,19.71,6.23,32.6,25,41.41,43.74C511,137,518.67,186.67,513.08,218.16A105.35,105.35,0,0,1,496.27,259.22Z" transform="translate(-2.01)"/></g><g class="cls-4"><path class="cls-5" d="M276.84,65.2c-3-.81-5.93-1.66-8.87-2.62-2.58-.83-5.15-1.71-7.7-2.66-25.91-9.65-49.37-24.78-73.93-37.5-7.83-4.05-15.88-7.88-24.11-11.18A393.93,393.93,0,0,0,85.87,274.8c1.17.43,2.35.85,3.55,1.23,11.11,3.54,22.78,4.81,34.56,5.47C146.76,194.2,202.77,116.5,276.84,65.2Z" transform="translate(-2.01)"/></g><g class="cls-6"><path class="cls-7" d="M277.48,79.07c-.21-3.33-1.42-7.08-3.91-8.54a5.47,5.47,0,0,0-7.09,1.17c-1.6,2.15-2.41,5.36-3.12,8.21a28.18,28.18,0,0,0-.42,3.43,2.31,2.31,0,0,0,.7,1.12c2.5,2.56,7.36,3.81,10.56,4C277.64,88.62,277.69,82.41,277.48,79.07Z" transform="translate(-2.01)"/><path class="cls-8" d="M168.15,124.14a12.72,12.72,0,0,0,4.07-7.84,14.18,14.18,0,0,0-6.05-12.8c-7-4.93-18.83-5.33-27-6.4-6.18-.8-13.69-1.85-17,4.53-1.16,2.26-1.7,3.11-1.43,5.67a8.91,8.91,0,0,0,1.3,4.13c3.81,6.7,15.52,11.18,22.35,13.44,6.24,2.07,13.09,4.16,19.11,2.07A13.33,13.33,0,0,0,168.15,124.14Z" transform="translate(-2.01)"/><g class="cls-9"><path class="cls-10" d="M249.71,115a83.35,83.35,0,0,1,2.86-24.39c2.16-8.21,5.65-16.41,12-22a8.5,8.5,0,0,1,4-2.25c2.79-.47,5.51,1.58,6.73,4.13s1.26,5.48,1.21,8.3c-.31,16.63-1.95,32.59.56,49.14,2.84,18.74,16.25,34.58,19.78,53.32,3.32,17.67,5.54,40.2,15.86,55.42,3,4.4,7.08,8.38,8,13.62,1,5.89-2.29,11.59-5.67,16.52a213.62,213.62,0,0,1-28.77,33.77c-2.57,2.45-6.13,5-9.35,3.53-1.8-.83-2.85-2.69-3.83-4.41-7.59-13.31-15.53-22.43-29.53-28.14a96.66,96.66,0,0,1-35.93-25.72c-11.23-12.78-13.23-20.42-8.21-36.59.94-3,2.15-6.1,4.35-8.41,10.31-10.87,28-6.07,40.46-12.57,14.3-7.45,19.94-28.6,13.2-42.81A77.18,77.18,0,0,1,249.71,115Z" transform="translate(-2.01)"/><path class="cls-8" d="M299.27,243.27,204.13,278a3.71,3.71,0,0,1-4.77-2.22L130.43,86.65a3.71,3.71,0,0,1,2.22-4.76L227.79,47.2a3.72,3.72,0,0,1,4.77,2.22L301.49,238.5A3.73,3.73,0,0,1,299.27,243.27Z" transform="translate(-2.01)"/></g><path class="cls-11" d="M293,237.15l-95.14,34.69a3.73,3.73,0,0,1-4.77-2.22L124.19,80.54a3.72,3.72,0,0,1,2.22-4.77l95.14-34.68a3.71,3.71,0,0,1,4.77,2.22l68.93,189.07A3.71,3.71,0,0,1,293,237.15Z" transform="translate(-2.01)"/><path class="cls-12" d="M246.4,240.2a5.78,5.78,0,1,1-7.41-3.44A5.79,5.79,0,0,1,246.4,240.2Z" transform="translate(-2.01)"/><path class="cls-13" d="M186.47,150A224.13,224.13,0,0,1,138.9,88.6l-2.53.92,57.68,158.21,86.41-31.51-1.15-3.15C244.71,200.14,213.26,174.75,186.47,150Z" transform="translate(-2.01)"/><path class="cls-14" d="M273.51,197.17,222.78,58,154.35,83C179.74,132.54,224.53,169.09,273.51,197.17Z" transform="translate(-2.01)"/><path class="cls-14" d="M154.35,83,138.9,88.6A224.13,224.13,0,0,0,186.47,150c26.79,24.74,58.24,50.13,92.84,63.06l-5.8-15.9C224.53,169.09,179.74,132.54,154.35,83Z" transform="translate(-2.01)"/><rect class="cls-15" x="157.4" y="62.88" width="38.19" height="4.9" transform="translate(-13.71 64.4) rotate(-20.03)"/><path class="cls-8" d="M199.66,203.56c-14.93,10.9-37.21,14.44-54.91,10.1a13.13,13.13,0,0,0,.74,1.92,15.43,15.43,0,0,0,13.06,8.2c9.34.41,20.42-6.14,28.57-10C192.13,211.45,198.05,208.72,199.66,203.56Z" transform="translate(-2.01)"/><path class="cls-10" d="M199.66,203.56a9.71,9.71,0,0,0,.37-3.87c-.26-2.75-.25-3.84-2-6a9.48,9.48,0,0,0-3.62-3c-7.42-3.91-20.79-1.15-28.39.77-6.95,1.76-14.45,3.87-18.75,9.32a14.37,14.37,0,0,0-2.63,5.29,14.13,14.13,0,0,0,.12,7.66C162.45,218,184.73,214.46,199.66,203.56Z" transform="translate(-2.01)"/><path class="cls-7" d="M189.16,206.47c2.56-1.51,4.88-4.05,4.56-6.82a7,7,0,0,0-5.22-5.76c-2.7-.55-5.79,0-8.53.51a23.84,23.84,0,0,0-3,1,1.66,1.66,0,0,0-.48,1.06c-.57,3.2,1.35,8,3.14,10.85C181.52,210.4,186.58,208,189.16,206.47Z" transform="translate(-2.01)"/><path class="cls-8" d="M168.31,242.31a9,9,0,0,0,2.06,3.91,10.29,10.29,0,0,0,9.92,2.82c6.07-1.49,12-7.77,16.47-11.76a30,30,0,0,0,4.5-4.58C192.28,239.5,179.81,242.69,168.31,242.31Z" transform="translate(-2.01)"/><path class="cls-10" d="M202.41,225.8c-.68-1.72-.89-2.42-2.42-3.5A6.45,6.45,0,0,0,197.1,221c-5.5-1.12-13.57,3.16-18.09,5.82-4.13,2.43-8.56,5.19-10.3,9.49a9.7,9.7,0,0,0-.69,3.89,9.07,9.07,0,0,0,.29,2.08c11.5.38,24-2.81,32.95-9.61A6.88,6.88,0,0,0,202.41,225.8Z" transform="translate(-2.01)"/><path class="cls-7" d="M196.7,232.19c1.36-1.45,2.37-3.51,1.65-5.23a4.71,4.71,0,0,0-4.44-2.73,15.69,15.69,0,0,0-5.37,1.93,14.42,14.42,0,0,0-1.76,1.21,1.11,1.11,0,0,0-.12.76c.24,2.17,2.37,4.87,4.05,6.38S195.33,233.64,196.7,232.19Z" transform="translate(-2.01)"/><path class="cls-8" d="M146.9,191.77c8.37,1.88,19.44-2.24,27.43-4.38,4.2-1.13,9-2.39,11.78-5.48a51.64,51.64,0,0,1-49.53.79A14.25,14.25,0,0,0,146.9,191.77Z" transform="translate(-2.01)"/><path class="cls-10" d="M136.58,182.7a51.64,51.64,0,0,0,49.53-.79,8.62,8.62,0,0,0,2.18-5.18c.21-2.53.39-3.51-.84-5.78a8.89,8.89,0,0,0-2.77-3.33c-6.07-4.74-18.61-4.41-25.79-3.91-6.55.46-13.68,1.15-18.45,5.38a13,13,0,0,0-3.23,4.35,12.76,12.76,0,0,0-.78,8.8Z" transform="translate(-2.01)"/><path class="cls-7" d="M177.36,181.09c2.57-.94,5.07-2.86,5.23-5.42a6.41,6.41,0,0,0-3.78-6c-2.35-.94-5.23-.94-7.79-.92a19.71,19.71,0,0,0-2.89.4,1.51,1.51,0,0,0-.61.87c-1,2.81-.08,7.43,1.07,10.32C169.83,183.4,174.79,182,177.36,181.09Z" transform="translate(-2.01)"/><path class="cls-16" d="M336.78,137l-116,2.16a10.72,10.72,0,0,1-10.91-10.51L209.26,96A10.72,10.72,0,0,1,219.78,85.1l116-2.16a10.72,10.72,0,0,1,10.92,10.52l.6,32.64A10.71,10.71,0,0,1,336.78,137Z" transform="translate(-2.01)"/><path class="cls-16" d="M233.82,133.83c-.09,1-7.37,25.52-7.37,25.52L252,131.12Z" transform="translate(-2.01)"/><path class="cls-17" d="M322.9,122.55a13.15,13.15,0,0,1-.35-26.3h.36a13.15,13.15,0,0,1,.34,26.3Z" transform="translate(-2.01)"/><path class="cls-16" d="M322.91,97.24a12.15,12.15,0,0,1,.31,24.3h-.32a12.15,12.15,0,0,1-.32-24.3h.33m0-2h-.38a14.15,14.15,0,0,0,.37,28.3h.38a14.15,14.15,0,0,0-.37-28.3Z" transform="translate(-2.01)"/><path class="cls-16" d="M316.52,107.54a6.24,6.24,0,0,0,3,2.2l3.16,1.49a.87.87,0,0,1,.5.42.83.83,0,0,1-.09.59c-.35.77-.84,1.68-.39,2.39.28.44.83.62,1.21,1,1.17,1.13.1,3.28,1,4.66,1.9-2,3.79-3.92,5.69-5.87a1,1,0,0,0,.36-.62c0-.31-.25-.57-.51-.76a16.4,16.4,0,0,0-6.25-3,7.35,7.35,0,0,1-2.39-.81,1.87,1.87,0,0,1-.84-2.17c.44,0,.83.29,1.26.42a2.49,2.49,0,0,0,2.55-1.16c.58-.8.89-1.77,1.44-2.6a5.5,5.5,0,0,1,3.33-2.32,2.46,2.46,0,0,0-2.28-1,4.38,4.38,0,0,0-2.36,1c-.38.29-.92.63-1.28.31a.88.88,0,0,1-.23-.46,3,3,0,0,1,1.29-3.11c-.23.15-1.57-.18-1.93-.17-1.77,0-4.4.25-5.58,1.71C315.68,101.48,315.38,105.57,316.52,107.54Z" transform="translate(-2.01)"/><path class="cls-16" d="M332.83,105.35c-.24.56-.48,1.12-.71,1.69a3.75,3.75,0,0,0-.39,1.39,1.3,1.3,0,0,0,.61,1.22,1.23,1.23,0,0,0,1.55-.77,3.44,3.44,0,0,0,.05-2,3.49,3.49,0,0,0-.83-1.94" transform="translate(-2.01)"/><path class="cls-18" d="M269.78,120.25h-.22a3.44,3.44,0,0,1-3.52-3.35l-.23-8.64a3.44,3.44,0,0,1,3.34-3.52l15.62-.42a3.44,3.44,0,0,1,3.53,3.35l.23,8.64a3.45,3.45,0,0,1-3.35,3.53l-11.24.29-4,4.68Z" transform="translate(-2.01)"/><path class="cls-16" d="M284.86,105.33a2.44,2.44,0,0,1,2.44,2.38l.23,8.63a2.45,2.45,0,0,1-2.38,2.51l-11.67.3-2.64,3.07-.08-3-1.22,0h-.07a2.43,2.43,0,0,1-2.43-2.37l-.23-8.64a2.43,2.43,0,0,1,2.37-2.5l15.62-.42h.06m0-2h-.12l-15.61.42a4.44,4.44,0,0,0-4.32,4.55l.23,8.64a4.4,4.4,0,0,0,3.77,4.27l0,1.06.13,5.16,3.38-3.91,2.06-2.39,10.8-.28a4.46,4.46,0,0,0,4.32-4.56l-.23-8.64a4.42,4.42,0,0,0-4.44-4.32Z" transform="translate(-2.01)"/><path class="cls-19" d="M290.86,112.6l-11.24.3a3.44,3.44,0,0,1-3.53-3.35l-.22-8.63a3.41,3.41,0,0,1,.94-2.46,3.37,3.37,0,0,1,2.4-1.07L294.83,97a3.43,3.43,0,0,1,3.52,3.34l.23,8.64a3.45,3.45,0,0,1-3.34,3.53H295l.12,4.57Z" transform="translate(-2.01)"/><path class="cls-16" d="M294.92,98a2.44,2.44,0,0,1,2.44,2.38l.22,8.64a2.44,2.44,0,0,1-2.37,2.5l-1.22,0,.08,3-2.8-2.92-11.67.31h-.07a2.44,2.44,0,0,1-2.44-2.37l-.22-8.64a2.42,2.42,0,0,1,2.37-2.5L294.85,98h.07m0-2h-.12l-15.61.41a4.42,4.42,0,0,0-4.32,4.55l.23,8.64a4.41,4.41,0,0,0,4.43,4.32h.12l10.79-.29,2.19,2.29,3.58,3.72-.14-5.16,0-1.06a4.44,4.44,0,0,0,3.54-4.47l-.23-8.64A4.41,4.41,0,0,0,294.92,96Z" transform="translate(-2.01)"/><path class="cls-20" d="M232.5,119.47a9.51,9.51,0,0,1,6.68-9.12,7.53,7.53,0,0,1-1.37-4.22c-.1-3.72,2.35-6.81,5.45-6.89h.13c3.09,0,5.59,2.9,5.69,6.61a7.59,7.59,0,0,1-1.14,4.26,9.41,9.41,0,0,1,7.05,8.78v1l-22.44.6Z" transform="translate(-2.01)"/><path class="cls-16" d="M243.39,100.23c2.52,0,4.6,2.5,4.69,5.63a6.18,6.18,0,0,1-2,4.89c7.95,1,7.93,8.13,7.93,8.13l-20.49.54s-.32-7,7.6-8.52a6.17,6.17,0,0,1-2.3-4.79c-.08-3.18,1.93-5.81,4.49-5.87h.1m0-2h-.15c-3.66.09-6.55,3.65-6.43,7.92a8.77,8.77,0,0,0,.9,3.69,10.3,10.3,0,0,0-6.21,9.66l.09,2,2,0,20.49-.54,1.94,0v-1.94a10.22,10.22,0,0,0-6.61-9.38,8.91,8.91,0,0,0,.7-3.7c-.12-4.25-3.05-7.58-6.69-7.58Z" transform="translate(-2.01)"/><path class="cls-21" d="M219.58,122.31a9.52,9.52,0,0,1,6.69-9.11,7.56,7.56,0,0,1-1.38-4.22c-.1-3.72,2.35-6.82,5.46-6.9h.13c3.09,0,5.58,2.9,5.68,6.6a7.64,7.64,0,0,1-1.13,4.26,9.42,9.42,0,0,1,7,8.79v1l-22.44.59Z" transform="translate(-2.01)"/><path class="cls-16" d="M230.48,103.08c2.51,0,4.6,2.5,4.68,5.63a6.14,6.14,0,0,1-2,4.89c7.94,1,7.92,8.13,7.92,8.13l-20.49.54s-.31-7,7.6-8.53a6.13,6.13,0,0,1-2.29-4.79c-.08-3.17,1.92-5.8,4.48-5.87h.11m0-2h-.16c-3.66.1-6.54,3.65-6.43,7.93a8.88,8.88,0,0,0,.91,3.68,10.33,10.33,0,0,0-6.22,9.67l.09,2,2,0,20.49-.54,1.95,0v-2a10.2,10.2,0,0,0-6.61-9.37,8.66,8.66,0,0,0,.7-3.7c-.11-4.25-3-7.58-6.68-7.58Z" transform="translate(-2.01)"/><path class="cls-16" d="M339.53,293.22c13.42-2.78,24.91-9.45,32.91-18.82l-50.86-38.26c-3.47-2.6-8.78-1.88-11.14,1.55-13,18.86-35.83,35.87-46.77,43.4a6,6,0,0,0-1.05,9.35l3.34,3.44C288.53,302.87,315.32,298.43,339.53,293.22Z" transform="translate(-2.01)"/><g class="cls-22"><path class="cls-23" d="M351.27,309.13a64.4,64.4,0,0,0,37-24.08l-57.18-48.94a8.32,8.32,0,0,0-12.53,2C304,262.22,278.28,284,266,293.61a8.33,8.33,0,0,0-1.18,12l3.76,4.39C293.93,321.48,324.06,315.8,351.27,309.13Z" transform="translate(-2.01)"/><path class="cls-23" d="M434.56,329.6l-46.29-44.55a64.4,64.4,0,0,1-37,24.08c-27.21,6.67-57.34,12.35-82.71.84l55.57,65.67a8.33,8.33,0,0,0,8.92,2.5l75.79-24.71.63-.24,22.88-9.57A8.33,8.33,0,0,0,434.56,329.6Z" transform="translate(-2.01)"/><g class="cls-24"><path d="M386.26,284c-15.88,3.22-30.62,9.26-41.16,22.92-3.93,5.09-8.26,9.81-11.72,15.18a30.5,30.5,0,0,1-8.11,8.3c-8.14,6.05-16.65,11.49-26.14,13.87l20.69,21.55c3.05-1.86,6-3.92,8.94-6.07a34.35,34.35,0,0,0,9-8.94c3.55-5.33,7.8-10.09,11.73-15.18,15.64-20.28,40.54-23.78,64.69-26.16Z" transform="translate(-2.01)"/></g></g></g></g></g></svg>