<svg xmlns="http://www.w3.org/2000/svg" xmlns:xlink="http://www.w3.org/1999/xlink" viewBox="0 0 581.55 380.46"><defs><style>.cls-1{fill:none;}.cls-2{opacity:0.4;}.cls-3{fill:url(#linear-gradient);}.cls-4{opacity:0.1;}.cls-5{fill:url(#linear-gradient-2);}.cls-6{fill:url(#linear-gradient-3);}.cls-7{fill:#fff;}.cls-8{fill:#41e9ff;}.cls-9{fill:#e3fdff;}.cls-10{fill:#ffc940;}.cls-11{fill:#edb15f;}.cls-12{fill:#113c4f;}.cls-13{fill:#ffe173;}.cls-14{fill:#1e4887;}.cls-15{clip-path:url(#clip-path);}.cls-16{fill:url(#linear-gradient-4);}.cls-17{fill:#f4662b;}.cls-18{opacity:0.2;}</style><linearGradient id="linear-gradient" y1="188.02" x2="581.55" y2="188.02" gradientUnits="userSpaceOnUse"><stop offset="0" stop-color="#f55700"/><stop offset="1" stop-color="#ef271b"/></linearGradient><linearGradient id="linear-gradient-2" x1="260.5" y1="158.04" x2="579.98" y2="158.04" xlink:href="#linear-gradient"/><linearGradient id="linear-gradient-3" x1="180.51" y1="232.52" x2="367.13" y2="19.24" gradientUnits="userSpaceOnUse"><stop offset="0" stop-color="#f5752f"/><stop offset="0.12" stop-color="#f46c2d"/><stop offset="1" stop-color="#ef271b"/></linearGradient><clipPath id="clip-path"><path class="cls-1" d="M580,163.06c-3.2,19.14-11.34,37.22-24.76,51.18-16.31,17-38.58,26.61-58.19,39.65a114.94,114.94,0,0,0-22.24,18.8,74.27,74.27,0,0,0-9.67,13.49c-3.75,6.8-5.22,13.47-6.62,21-1,5.39-3.78,10.06-3.62,15.65l-1.45,6.94c-10.79,20.78-21.38,39.38-47,42.13-20.59,2.21-40.9-5.16-60.06-13S307.68,342.3,287,341.77c-40.14-1-75.1,28.25-114.91,33.43-25.55,3.34-51.57-3.58-74.69-14.93C49.11,336.57,10.32,291.09,1.67,238S18.41,126.14,66.36,101.84c27.85-14.13,60.23-16.19,91.44-15s62.44,5.47,93.56,2.91c3.06-.25,6.11-.58,9.14-1,42.15-5.29,82-22.69,118.31-45.43q13.51-8.51,26.36-17.84C420,14.79,435.31,2.88,453.52.45c23.15-3.07,45.33,10,63.3,24.89,27.81,23.05,51.3,52.82,60.67,87.69A118.81,118.81,0,0,1,580,163.06Z"/></clipPath><linearGradient id="linear-gradient-4" x1="193.86" y1="372.07" x2="407.96" y2="273.93" gradientUnits="userSpaceOnUse"><stop offset="0" stop-color="#f5752f"/><stop offset="1" stop-color="#ef271b"/></linearGradient></defs><title>Asset 9</title><g id="Layer_2" data-name="Layer 2"><g id="Layer_1-2" data-name="Layer 1"><g class="cls-2"><path class="cls-3" d="M580,163.06c-3.2,19.14-11.34,37.22-24.76,51.18-16.31,17-38.58,26.61-58.19,39.65a114.94,114.94,0,0,0-22.24,18.8,74.27,74.27,0,0,0-9.67,13.49c-3.75,6.8-5.22,13.47-6.62,21-1,5.39-3.78,10.06-3.62,15.65l-1.45,6.94c-10.79,20.78-21.38,39.38-47,42.13-20.59,2.21-40.9-5.16-60.06-13S307.68,342.3,287,341.77c-40.14-1-75.1,28.25-114.91,33.43-25.55,3.34-51.57-3.58-74.69-14.93C49.11,336.57,10.32,291.09,1.67,238S18.41,126.14,66.36,101.84c27.85-14.13,60.23-16.19,91.44-15s62.44,5.47,93.56,2.91c3.06-.25,6.11-.58,9.14-1,42.15-5.29,82-22.69,118.31-45.43q13.51-8.51,26.36-17.84C420,14.79,435.31,2.88,453.52.45c23.15-3.07,45.33,10,63.3,24.89,27.81,23.05,51.3,52.82,60.67,87.69A118.81,118.81,0,0,1,580,163.06Z"/></g><g class="cls-4"><path class="cls-5" d="M580,163.06c-3.2,19.14-11.34,37.22-24.76,51.18-16.31,17-38.58,26.61-58.19,39.65a114.94,114.94,0,0,0-22.24,18.8c-26.77-61.51-77.28-113-135.69-147.37a462.47,462.47,0,0,0-78.6-36.49c42.15-5.29,82-22.69,118.31-45.43C457.43,56.63,530.26,100.77,580,163.06Z"/></g><polygon class="cls-6" points="347.79 245.64 177.66 244.79 178.73 30.26 348.85 31.1 347.79 245.64"/><polygon class="cls-7" points="335.22 232.88 190.34 232.16 191.18 64.68 211.08 43.37 336.16 43.99 335.22 232.88"/><polygon class="cls-8" points="269.65 117.13 322.93 117.4 323.15 73.28 269.87 73.02 269.65 117.13"/><rect class="cls-8" x="232.34" y="48.47" width="6.3" height="55.04" transform="matrix(0, -1, 1, 0, 158.33, 311.1)"/><rect class="cls-8" x="232.28" y="61.07" width="6.31" height="55.05" transform="translate(145.67 323.58) rotate(-89.71)"/><rect class="cls-8" x="232.22" y="73.68" width="6.3" height="55.04" transform="translate(133.02 336.07) rotate(-89.72)"/><rect class="cls-8" x="232.15" y="86.28" width="6.31" height="55.05" transform="matrix(0, -1, 1, 0, 120.34, 348.54)"/><polygon class="cls-8" points="322.87 130 207.71 129.42 207.74 123.12 322.89 123.69 322.87 130"/><polygon class="cls-8" points="322.8 142.61 207.65 142.03 207.67 135.73 322.83 136.29 322.8 142.61"/><polygon class="cls-8" points="301.59 155.1 207.58 154.64 207.62 148.33 301.63 148.8 301.59 155.1"/><rect class="cls-8" x="261.96" y="106.8" width="6.3" height="115.15" transform="translate(99.42 428.67) rotate(-89.72)"/><polygon class="cls-8" points="322.61 180.41 207.45 179.85 207.49 173.54 322.64 174.12 322.61 180.41"/><polygon class="cls-8" points="322.56 193.02 207.4 192.44 207.42 186.15 322.57 186.72 322.56 193.02"/><polygon class="cls-8" points="291.36 205.47 207.33 205.05 207.36 198.75 291.4 199.17 291.36 205.47"/><rect class="cls-8" x="229.34" y="189.42" width="6.3" height="50.42" transform="translate(16.73 446.08) rotate(-89.72)"/><polygon class="cls-8" points="322.42 218.24 297.21 218.11 297.23 211.81 322.45 211.93 322.42 218.24"/><polygon class="cls-9" points="211.08 43.37 191.18 64.68 210.97 64.78 211.08 43.37"/><path class="cls-10" d="M275.22,36.57h-1.11a5.29,5.29,0,0,0,.05-.56,11,11,0,1,0-21.9-.1c0,.19,0,.36.05.54h-1.1a10.41,10.41,0,1,0-.11,20.81l24,.12a10.41,10.41,0,0,0,.1-20.81Zm-17-.64a5,5,0,0,1,10,.06,4.69,4.69,0,0,1-.11.54l-9.74-.05A4.86,4.86,0,0,1,258.23,35.93Z"/><path class="cls-11" d="M420.15,212.1s2-1.11-9.8-14.46-21.07-27.64-23-28.74-22.72-12-26.32-13-12,3.26-5.93,11.11S397.82,216.33,420.15,212.1Z"/><path class="cls-11" d="M352.47,173.2s-5.6-1.61-7.48,2-2.37,9.05,3,12c0,0-5.63,7.29,3.67,12.71,0,0-4.35,6,3.07,10.72,5.64,3.59,15.34,6.72,15.34,6.72S383,191.61,352.47,173.2Z"/><path class="cls-12" d="M316.61,148.36a3.4,3.4,0,0,0,1.62,2c1.38.78,2.75,1,3,.59s-.61-1.59-2-2.36A3.21,3.21,0,0,0,316.61,148.36Z"/><polygon class="cls-13" points="393.49 196.61 344.76 169.25 349.18 161.38 397.91 188.74 393.49 196.61"/><path class="cls-14" d="M396.56,195.21c-.77,1.36-2.13,1.93-3.07,1.4l4.42-7.87c.94.53,1.15,2,.43,3.28Z"/><polygon class="cls-13" points="325.55 158.46 344.76 169.25 349.18 161.38 329.97 150.59 325.55 158.46"/><polygon class="cls-14" points="327.41 149.16 319.06 148.4 318.03 150.24 322.98 157.03 325.55 158.46 329.97 150.59 327.41 149.16"/><rect class="cls-14" x="343.47" y="164.72" width="9.03" height="2.32" transform="translate(33.21 388.43) rotate(-60.75)"/><path class="cls-11" d="M372.36,263s-7.91-25-5.22-36.5,1.87-22.26-1.23-27S346,173.2,355.12,167c6.89-4.71,19.42,17.74,19.42,17.74l8.4,5.71,37.21,21.67s-9.53,43.43-11.14,49.09Z"/><path class="cls-11" d="M244.76,349s-2.74-5.68,6.5-14.34,16.84-30.2,16.84-30.2,4.72-20,6.27-25.61,2-10.28-3.41-11.73-10.07,9.44-16.43,24.85c0,0-1.31,2.13-.8-7s.61-44.64.61-44.64,1.3-10.32-6.38-10.49c-7-.14-5.86,6.85-5.94,10.87s-.12,28.05-.12,28.05-1.22,1.46-1.89,0l-.21-30.62s.41-6.09-4.58-6.27c-5.87-.22-6.11,3.62-6.17,6.17s.21,30.76.21,30.76-1.15,2-2.06,0l-.27-28.49s.26-4.15-5-4.25-5.17,3.91-5.17,3.91l.24,29s-.67,1.46-1.75,0l-.35-23.52s-.24-3.61-5.33-3.58-5.11,4-5.11,4l-.78,78.39s-.59,9.44,4.12,12.35,2.39,11.71,2.39,11.71Z"/><polygon class="cls-7" points="257.51 339.64 258.01 332.38 203.63 332.26 203.14 339.5 257.51 339.64"/><polygon class="cls-7" points="420.34 258.04 420.87 248.69 363.9 248.44 363.36 257.77 420.34 258.04"/><g class="cls-15"><polygon class="cls-16" points="261.84 338.38 262.32 371.17 201.08 371.17 200.6 338.5 261.84 338.38"/><polygon class="cls-17" points="422.48 255.2 423.49 380.44 362.26 380.46 361.25 255.51 422.48 255.2"/><g class="cls-18"><path d="M423.36,362.42c-18.43,10.79-40.38,5.95-61.25-2.12l.05,7.05a145.43,145.43,0,0,0,14.78,4.92c15.9,4.26,32.51,4.68,46.47-3.22Z"/></g><g class="cls-18"><path d="M201,363.38l.09,6.56c20.11-8,39.47-19,60.45-24.79L262,345l-.1-6.88c-15.1,4.06-29.43,11.23-43.73,17.83C212.46,358.62,206.75,361.13,201,363.38Z"/></g></g></g></g></svg>