<svg xmlns="http://www.w3.org/2000/svg" xmlns:xlink="http://www.w3.org/1999/xlink" viewBox="0 0 643.56 402.57"><defs><style>.cls-1{fill:none;}.cls-2{isolation:isolate;}.cls-3{opacity:0.4;}.cls-4{fill:url(#linear-gradient);}.cls-5{opacity:0.1;}.cls-6{fill:url(#linear-gradient-2);}.cls-7{clip-path:url(#clip-path);}.cls-8{fill:#ffc940;}.cls-9{fill:url(#linear-gradient-3);}.cls-10{fill:#ffb085;}.cls-11{fill:#fff;}.cls-12{fill:url(#linear-gradient-4);}.cls-13{fill:#e3fdff;}.cls-14{fill:url(#linear-gradient-5);}.cls-15{opacity:0.2;}.cls-16{fill:#fff06b;}.cls-17{fill:url(#linear-gradient-6);}.cls-18{fill:#f5d19d;mix-blend-mode:multiply;}.cls-19{opacity:0.3;}</style><linearGradient id="linear-gradient" y1="201.29" x2="643.56" y2="201.29" gradientUnits="userSpaceOnUse"><stop offset="0" stop-color="#f55700"/><stop offset="1" stop-color="#ef271b"/></linearGradient><linearGradient id="linear-gradient-2" x1="320.31" y1="222.79" x2="627.61" y2="222.79" xlink:href="#linear-gradient"/><clipPath id="clip-path"><path class="cls-1" d="M444.79,30.82C426.89,12.09,409.89-4.36,382.17,1,359.93,5.38,341,19.88,323.49,34.54S288.33,64.8,266.84,72.11c-41.65,14.16-87.55-5.79-130.85,1.6C108.22,78.46,83.2,94.33,62.62,114,19.67,155-6.45,216.32,1.38,275.9s53.1,114.24,111,124.65c33.63,6,68.16-2.28,100.41-13.75s63.57-26.16,97-33.54c60.12-13.28,123.16-1.84,181.32,18.67,19,6.69,38.75,14.47,58.56,11.13,25.2-4.24,44.26-25.42,58.32-47.21,21.74-33.71,36.84-73.19,35.55-113.55s-21-81.32-55.48-101c-22.47-12.84-48.83-15.91-73.48-23.47-15.82-4.86-31.67-12.29-43.65-24.18-6.09-6-9.75-12.71-13.61-20.29-2.77-5.43-7.14-9.54-8.75-15.56"/></clipPath><linearGradient id="linear-gradient-3" x1="267.87" y1="242.9" x2="398.27" y2="242.9" xlink:href="#linear-gradient"/><linearGradient id="linear-gradient-4" x1="348.06" y1="347.9" x2="388.61" y2="347.9" xlink:href="#linear-gradient"/><linearGradient id="linear-gradient-5" x1="276.08" y1="380.22" x2="316.64" y2="380.22" gradientTransform="translate(-0.07 -253.5) scale(1 1.6)" xlink:href="#linear-gradient"/><linearGradient id="linear-gradient-6" x1="256.93" y1="43.28" x2="409.21" y2="43.28" xlink:href="#linear-gradient"/></defs><title>Asset 11</title><g class="cls-2"><g id="Layer_2" data-name="Layer 2"><g id="Layer_1-2" data-name="Layer 1"><g class="cls-3"><path class="cls-4" d="M444.79,30.82C426.89,12.09,409.89-4.36,382.17,1,359.93,5.38,341,19.88,323.49,34.54S288.33,64.8,266.84,72.11c-41.65,14.16-87.55-5.79-130.85,1.6C108.22,78.46,83.2,94.33,62.62,114,19.67,155-6.45,216.32,1.38,275.9s53.1,114.24,111,124.65c33.63,6,68.16-2.28,100.41-13.75s63.57-26.16,97-33.54c60.12-13.28,123.16-1.84,181.32,18.67,19,6.69,38.75,14.47,58.56,11.13,25.2-4.24,44.26-25.42,58.32-47.21,21.74-33.71,36.84-73.19,35.55-113.55s-21-81.32-55.48-101c-22.47-12.84-48.83-15.91-73.48-23.47-15.82-4.86-31.67-12.29-43.65-24.18-6.09-6-9.75-12.71-13.61-20.29-2.77-5.43-7.14-9.54-8.75-15.56"/></g><g class="cls-5"><path class="cls-6" d="M320.31,351.19c43-7.43,87.28-2.8,130,8.24C531.75,321.68,596.41,248.57,627.61,163c-9.38-17.29-22.72-32.06-39.61-41.72-22.47-12.84-48.83-15.91-73.48-23.47a127.6,127.6,0,0,1-27.16-11.64c-7,72.68-42.25,142.64-91.09,197C373.37,308.62,347.74,331.08,320.31,351.19Z"/></g><g class="cls-7"><path class="cls-8" d="M384.42,226.54c0-9-23.49-16.36-52.48-16.36s-52.48,7.32-52.48,16.36,23.49,16.35,52.48,16.35S384.42,235.57,384.42,226.54Z"/><polygon class="cls-9" points="333.07 221.17 267.87 221.17 267.87 264.62 333.07 264.62 398.27 264.62 398.27 221.17 333.07 221.17"/><path class="cls-10" d="M351.22,332.76s-2.08-11.08-4.16-15.92-4.84-21.11,4.16-33.22,16.61-31.85,16.61-31.85,3.86-14.88,11.79-11.76,1.07,17.3,0,20.41-4,20.08-4,20.08,13-20.08,19.54-24.58c0,0,1-18.33,3.46-27,0,0-19.88-27.15-11.07-32.53,6.23-3.81,16.83,15.62,16.83,15.62s6.89,10.33,8,20.72,2.51,20.41,2.51,20.41a20.41,20.41,0,0,1-2.57,13.51c-4,6.92-24.09,44.29-24.09,44.29s-2.77,4.85-2.42,9,0,12.81,0,12.81Z"/><rect class="cls-11" x="348.06" y="328.61" width="40.55" height="8.3"/><rect class="cls-12" x="348.06" y="336.91" width="40.55" height="21.98"/><rect class="cls-13" x="367.83" y="328.61" width="20.79" height="8.3"/><path class="cls-10" d="M313.34,332.66s2-11.08,4.1-15.93,4.78-21.13-4.26-33.21-16.73-31.79-16.73-31.79-3.9-14.87-11.83-11.72-1,17.3.07,20.41,4.06,20.06,4.06,20.06-13-20-19.62-24.51c0,0-1.09-18.33-3.55-27,0,0,19.8-27.21,11-32.56-6.24-3.79-16.78,15.67-16.78,15.67s-6.86,10.35-7.94,20.74-2.45,20.43-2.45,20.43A20.42,20.42,0,0,0,252,266.76c4,6.91,24.23,44.22,24.23,44.22s2.79,4.83,2.46,9,0,12.81,0,12.81Z"/><rect class="cls-11" x="275.94" y="328.57" width="40.55" height="8.3" transform="translate(-1.09 0.97) rotate(-0.19)"/><rect class="cls-14" x="276.01" y="336.87" width="40.55" height="35.14" transform="translate(-1.16 0.97) rotate(-0.19)"/><rect class="cls-13" x="296.73" y="328.54" width="20.8" height="8.3" transform="translate(-1.09 1.01) rotate(-0.19)"/><g class="cls-15"><path d="M276.05,374.65a315.15,315.15,0,0,1,40.52-11l-.06-18.13h-3A319.56,319.56,0,0,0,276,355.92Z"/></g><g class="cls-15"><path d="M388.61,341.53a282.85,282.85,0,0,0-39.92-.68l-.63,0v18.75l.63-.05a284.36,284.36,0,0,1,39.92.69Z"/></g></g><path class="cls-8" d="M333.07,178.29v44.83H310.35s11.92-25.69,11.36-52.89H334.2Z"/><path class="cls-8" d="M333.07,178.29v44.83h22.72s-11.93-25.69-11.36-52.89H331.94Z"/><path class="cls-8" d="M386.78,156.8c-25.31,0-26.95-33.71-27.49-44.79-1-21.38,13.18-29.62,29.11-36.82a44.41,44.41,0,0,1,17.85-3.87c17.56,0,29.36,10.81,31.57,28.92,1.56,12.66-2.4,25-11.43,35.72-9.95,11.82-25.34,20.18-38.29,20.8C387.65,156.78,387.21,156.8,386.78,156.8Zm19.47-74.28A32.93,32.93,0,0,0,393,85.39c-16.1,7.29-23.18,12.77-22.53,26.08,1.48,30.59,10,34.13,16.3,34.13l.79,0c9.86-.49,22.31-7.41,30.27-16.83,4.85-5.77,10.34-15.16,8.87-27.15C424.78,85.83,414.52,82.52,406.25,82.52Z"/><path class="cls-8" d="M277.6,156.8h0c-.44,0-.88,0-1.33,0-12.95-.62-28.33-9-38.29-20.8-9-10.71-13-23.06-11.43-35.72,2.22-18.11,14-28.92,31.58-28.92A44.37,44.37,0,0,1,276,75.19c15.92,7.2,30.14,15.44,29.1,36.82C304.54,123.09,302.91,156.8,277.6,156.8ZM258.13,82.52c-8.27,0-18.53,3.31-20.46,19.08-1.47,12,4,21.38,8.88,27.15,7.95,9.42,20.39,16.34,30.26,16.83l.79,0c6.28,0,14.81-3.54,16.3-34.13.64-13.31-6.43-18.79-22.54-26.08A32.88,32.88,0,0,0,258.13,82.52Z"/><path class="cls-16" d="M333.07,185h-.88C332.75,185.06,333.07,185,333.07,185Z"/><path class="cls-16" d="M333.07,59.55V185s76.12,11.37,76.12-125.49Z"/><path class="cls-16" d="M333.07,185H334C333.38,185.06,333.07,185,333.07,185Z"/><path class="cls-16" d="M333.07,59.55V185S257,196.41,257,59.55Z"/><path class="cls-17" d="M334,27v0h-1.76v0C253.78,27.51,257,59.55,257,59.55H409.19S412.35,27.51,334,27Z"/><g class="cls-15"><path d="M332.19,27V59.55h77S412.35,27.51,334,27v0h-1.76v0Z"/></g><path class="cls-16" d="M344.17,20.17a12,12,0,1,1-12-12A12,12,0,0,1,344.17,20.17Z"/><polygon class="cls-8" points="333.07 136.18 346.57 143.28 343.99 128.24 354.91 117.6 339.81 115.4 333.07 101.72 326.32 115.4 311.22 117.6 322.15 128.24 319.56 143.28 333.07 136.18"/><polygon class="cls-8" points="367.79 118.22 377.18 121.1 373.75 111.89 379.39 103.84 369.57 104.26 363.65 96.41 361.02 105.88 351.72 109.07 359.91 114.51 360.09 124.33 367.79 118.22"/><polygon class="cls-8" points="298.35 118.22 288.95 121.1 292.39 111.89 286.75 103.84 296.57 104.26 302.48 96.41 305.12 105.88 314.41 109.07 306.22 114.51 306.05 124.33 298.35 118.22"/><path class="cls-18" d="M344.17,20.17a12,12,0,0,0-12-12v24A12,12,0,0,0,344.17,20.17Z"/><g class="cls-19"><g class="cls-5"><polygon points="332.19 221.17 332.19 264.62 333.07 264.62 398.27 264.62 398.27 221.17 333.07 221.17 332.19 221.17"/></g><path class="cls-18" d="M332.19,59.55V221.17h49.33c-5-4.49-16.1-8.09-30.23-9.84a141.26,141.26,0,0,1-6.09-26.69c11.21-1.73,28.13-7.87,41.75-27.85l1.15,0c12.95-.62,28.34-9,38.29-20.8,9-10.71,13-23.06,11.43-35.72C435.73,83.09,425,72.5,409,71.43c.14-3.84.21-7.78.21-11.88Zm94.52,42.05c1.47,12-4,21.38-8.87,27.15-6.3,7.46-15.42,13.35-23.85,15.71,7.07-14.73,12.46-34.73,14.4-61.86C416.2,83.18,424.94,87.17,426.71,101.6Z"/></g></g></g></g></svg>