<svg id="Layer_1" data-name="Layer 1" xmlns="http://www.w3.org/2000/svg" xmlns:xlink="http://www.w3.org/1999/xlink" viewBox="0 0 212.07 156.52"><defs><style>.cls-1{fill:none;}.cls-2{opacity:0.4;}.cls-3{fill:url(#linear-gradient);}.cls-4{opacity:0.1;}.cls-5{fill:url(#linear-gradient-2);}.cls-6{clip-path:url(#clip-path);}.cls-7{fill:#ffc09d;}.cls-8{fill:#ffa472;}.cls-9{clip-path:url(#clip-path-2);}.cls-10{fill:#ffb085;}.cls-11{fill:#484f55;}.cls-12{fill:#999;}.cls-13{fill:#67a0c3;}.cls-14{fill:#7dbada;}.cls-15{fill:#333;}.cls-16{fill:#fff;}.cls-17{fill:url(#linear-gradient-3);}.cls-18{fill:url(#linear-gradient-4);}.cls-19{fill:url(#linear-gradient-5);}.cls-20{fill:url(#linear-gradient-6);}.cls-21{fill:url(#linear-gradient-7);}.cls-22{clip-path:url(#clip-path-3);}.cls-23{fill:#f4662b;}.cls-24{opacity:0.2;}</style><linearGradient id="linear-gradient" x1="-435.06" y1="39.52" x2="-221.93" y2="39.52" gradientTransform="translate(420.91 171.21) rotate(25.11)" gradientUnits="userSpaceOnUse"><stop offset="0" stop-color="#f55700"/><stop offset="1" stop-color="#ef271b"/></linearGradient><linearGradient id="linear-gradient-2" x1="35.08" y1="60.52" x2="114.46" y2="60.52" gradientTransform="matrix(1, 0, 0, 1, 0, 0)" xlink:href="#linear-gradient"/><clipPath id="clip-path" transform="translate(-0.83)"><path class="cls-1" d="M205.41,107.13a35.16,35.16,0,0,1-16.16,13.12c-8,3.09-16.93,2.83-25.46,4.11a42,42,0,0,0-10.29,2.78,26.26,26.26,0,0,0-5.3,3,24.21,24.21,0,0,0-5.46,5.92c-.81,1.13-1.91,2-2.73,3.13a36,36,0,0,1-2.5,3.51,26.13,26.13,0,0,1-4.85,3.61,28.15,28.15,0,0,1-5.88,3.08,16.94,16.94,0,0,1-11.37,0c-7.18-2.47-12.76-8.07-17.89-13.66s-10.25-11.49-17-14.89c-13.15-6.58-29.29-2.3-43.3-6.77-9-2.86-16.54-9.2-22.44-16.55C2.43,82.17-3.37,61.06,2,42.12S25,7.62,44.63,7C56.05,6.66,85-3,95.14,2.2s10.84,17,21.56,21c1,.39,65.56-3.12,46.11-1.2-15.48,1.53-21.08,16.13-5.5,14.23,3.86-.48,7.71-1.09,11.51-1.82,6.6-1.26,13.52-2.83,19.93-.81,8.16,2.58,13.48,10.36,17.13,18.09,5.63,12,8.79,25.49,6.48,38.51A43.42,43.42,0,0,1,205.41,107.13Z"/></clipPath><clipPath id="clip-path-2" transform="translate(-0.83)"><path class="cls-1" d="M103.25,47.54a34.28,34.28,0,0,1,1.18-10.09c.89-3.39,2.33-6.78,5-9.1a3.57,3.57,0,0,1,1.66-.93,2.79,2.79,0,0,1,2.78,1.71,7.49,7.49,0,0,1,.5,3.43c-.13,6.88-.8,13.48.23,20.32,1.18,7.75,6.72,14.3,8.18,22,1.38,7.31,2.3,16.62,6.56,22.92,1.23,1.82,2.93,3.46,3.3,5.63.43,2.43-.94,4.79-2.34,6.83a88.1,88.1,0,0,1-11.9,14c-1.06,1-2.53,2.07-3.87,1.46a4,4,0,0,1-1.58-1.82c-3.14-5.5-6.42-9.27-12.21-11.64a40,40,0,0,1-14.86-10.63c-4.64-5.28-5.47-8.44-3.39-15.13A8.64,8.64,0,0,1,84.26,83c4.26-4.49,11.56-2.51,16.73-5.2,5.91-3.07,8.24-11.82,5.46-17.69A31.81,31.81,0,0,1,103.25,47.54Z"/></clipPath><linearGradient id="linear-gradient-3" x1="128.07" y1="45.23" x2="138.95" y2="45.23" gradientUnits="userSpaceOnUse"><stop offset="0" stop-color="#f5752f"/><stop offset="1" stop-color="#ef271b"/></linearGradient><linearGradient id="linear-gradient-4" x1="109.9" y1="47.37" x2="119.3" y2="47.37" xlink:href="#linear-gradient-3"/><linearGradient id="linear-gradient-5" x1="114.06" y1="44.25" x2="123.45" y2="44.25" xlink:href="#linear-gradient-3"/><linearGradient id="linear-gradient-6" x1="96.13" y1="45.42" x2="105.43" y2="45.42" xlink:href="#linear-gradient-3"/><linearGradient id="linear-gradient-7" x1="90.79" y1="46.59" x2="100.09" y2="46.59" xlink:href="#linear-gradient-3"/><clipPath id="clip-path-3" transform="translate(-0.83)"><path class="cls-1" d="M110,121.39c5-3.86,15.21-12.49,21.57-22.87a3.56,3.56,0,0,1,5.35-.84l41.4,35.44-14.75,6.17L133.8,153.78,109.53,126.4A3.48,3.48,0,0,1,110,121.39Z"/></clipPath></defs><title>for web</title><g class="cls-2"><path class="cls-3" d="M205.19,107.18A35.22,35.22,0,0,1,189,120.3c-8.05,3.09-16.93,2.83-25.46,4.1a42,42,0,0,0-10.29,2.78,27.64,27.64,0,0,0-5.31,3c-4.67,3.39-7,8.94-11.11,12.88-5.65,5.46-14,9.07-21.68,6.41-7.17-2.47-12.76-8.07-17.89-13.66s-10.24-11.49-17-14.88C67.12,114.32,51,118.59,37,114.13c-9-2.86-16.54-9.2-22.44-16.56C-1.73,77.3.35,47.24,1.79,42.16,7.17,23.22,24.72.63,44.4,0,55.83-.34,66.89,4,77,9.27s19.86,11.52,30.57,15.5c1.06.4,2.12.76,3.19,1.11,14.79,4.79,30.71,5.22,46.28,3.32,3.87-.48,7.71-1.1,11.52-1.82,6.6-1.26,13.52-2.84,19.93-.81,8.15,2.58,13.48,10.35,17.12,18.09,5.64,12,8.8,32.52,6.49,45.54A43.62,43.62,0,0,1,205.19,107.18Z" transform="translate(-0.83)"/></g><g class="cls-4"><path class="cls-5" d="M114.46,27c-1.22-.34-2.45-.69-3.66-1.08s-2.13-.71-3.19-1.11C96.9,20.79,87.2,14.53,77,9.27c-3.23-1.68-6.56-3.26-10-4.62a162.83,162.83,0,0,0-31.58,109q.73.27,1.47.51a57.53,57.53,0,0,0,14.29,2.26C60.68,80.29,83.84,48.17,114.46,27Z" transform="translate(-0.83)"/></g><g class="cls-6"><path class="cls-7" d="M114.73,32.69c-.09-1.37-.59-2.92-1.62-3.53a2.27,2.27,0,0,0-2.93.49A9.84,9.84,0,0,0,108.89,33a11.45,11.45,0,0,0-.17,1.42.87.87,0,0,0,.29.46,7.23,7.23,0,0,0,4.36,1.65C114.79,36.64,114.82,34.07,114.73,32.69Z" transform="translate(-0.83)"/><path class="cls-8" d="M69.52,51.33a5.27,5.27,0,0,0,1.69-3.24,5.88,5.88,0,0,0-2.5-5.29c-2.91-2-7.79-2.21-11.18-2.65-2.55-.33-5.66-.77-7,1.87a3.34,3.34,0,0,0-.59,2.34,3.62,3.62,0,0,0,.54,1.71c1.57,2.77,6.42,4.62,9.24,5.56,2.58.86,5.41,1.72,7.9.85A5.41,5.41,0,0,0,69.52,51.33Z" transform="translate(-0.83)"/><g class="cls-9"><path class="cls-10" d="M103.25,47.54a34.28,34.28,0,0,1,1.18-10.09c.89-3.39,2.33-6.78,5-9.1a3.57,3.57,0,0,1,1.66-.93,2.79,2.79,0,0,1,2.78,1.71,7.49,7.49,0,0,1,.5,3.43c-.13,6.88-.8,13.48.23,20.32,1.18,7.75,6.72,14.3,8.18,22,1.38,7.31,2.3,16.62,6.56,22.92,1.23,1.82,2.93,3.46,3.3,5.63.43,2.43-.94,4.79-2.34,6.83a88.1,88.1,0,0,1-11.9,14c-1.06,1-2.53,2.07-3.87,1.46a4,4,0,0,1-1.58-1.82c-3.14-5.5-6.42-9.27-12.21-11.64a40,40,0,0,1-14.86-10.63c-4.64-5.28-5.47-8.44-3.39-15.13A8.64,8.64,0,0,1,84.26,83c4.26-4.49,11.56-2.51,16.73-5.2,5.91-3.07,8.24-11.82,5.46-17.69A31.81,31.81,0,0,1,103.25,47.54Z" transform="translate(-0.83)"/><rect class="cls-8" x="66.82" y="24.08" width="44.95" height="86.29" rx="1.54" ry="1.54" transform="translate(-18.45 34.65) rotate(-20.03)"/></g><rect class="cls-11" x="64.24" y="21.55" width="44.95" height="86.29" rx="1.54" ry="1.54" transform="translate(-17.74 33.61) rotate(-20.03)"/><path class="cls-12" d="M101.88,99.32a2.39,2.39,0,1,1-3.06-1.43A2.4,2.4,0,0,1,101.88,99.32Z" transform="translate(-0.83)"/><path class="cls-13" d="M77.1,62A92.38,92.38,0,0,1,57.43,36.63l-1,.38,23.85,65.42L116,89.4l-.48-1.3C101.18,82.75,88.17,72.25,77.1,62Z" transform="translate(-0.83)"/><path class="cls-14" d="M113.09,81.52,92.11,24,63.82,34.3C74.32,54.8,92.84,69.91,113.09,81.52Z" transform="translate(-0.83)"/><path class="cls-14" d="M63.82,34.3l-6.39,2.33A92.38,92.38,0,0,0,77.1,62c11.07,10.23,24.08,20.73,38.38,26.08l-2.39-6.58C92.84,69.91,74.32,54.8,63.82,34.3Z" transform="translate(-0.83)"/><rect class="cls-15" x="65.08" y="26" width="15.79" height="2.02" transform="translate(-5.67 26.63) rotate(-20.03)"/><path class="cls-8" d="M82.55,84.17c-6.17,4.5-15.38,6-22.7,4.17a4.47,4.47,0,0,0,.31.79,6.37,6.37,0,0,0,5.4,3.4C69.42,92.69,74,90,77.37,88.4,79.44,87.43,81.89,86.3,82.55,84.17Z" transform="translate(-0.83)"/><path class="cls-10" d="M82.55,84.17a4.14,4.14,0,0,0,.16-1.6,3.67,3.67,0,0,0-.83-2.5,4.17,4.17,0,0,0-1.5-1.26c-3.07-1.61-8.6-.47-11.74.32-2.87.73-6,1.6-7.75,3.86a5.91,5.91,0,0,0-1,5.35C67.17,90.14,76.38,88.67,82.55,84.17Z" transform="translate(-0.83)"/><path class="cls-7" d="M78.21,85.37c1.06-.62,2-1.67,1.88-2.82a2.9,2.9,0,0,0-2.15-2.39,9.82,9.82,0,0,0-3.53.22,8.7,8.7,0,0,0-1.25.41.69.69,0,0,0-.2.43c-.24,1.33.56,3.3,1.3,4.49S77.15,86,78.21,85.37Z" transform="translate(-0.83)"/><path class="cls-8" d="M69.59,100.19a3.64,3.64,0,0,0,.85,1.61,4.25,4.25,0,0,0,4.1,1.17c2.51-.62,4.95-3.21,6.81-4.86a11.93,11.93,0,0,0,1.86-1.9A22,22,0,0,1,69.59,100.19Z" transform="translate(-0.83)"/><path class="cls-10" d="M83.69,93.36a2.45,2.45,0,0,0-1-1.45,2.7,2.7,0,0,0-1.2-.52c-2.27-.47-5.61,1.3-7.48,2.4-1.7,1-3.53,2.15-4.25,3.93a3.92,3.92,0,0,0-.29,1.61,4.14,4.14,0,0,0,.12.86,22,22,0,0,0,13.62-4A2.83,2.83,0,0,0,83.69,93.36Z" transform="translate(-0.83)"/><path class="cls-7" d="M81.33,96A2.16,2.16,0,0,0,82,93.84a1.94,1.94,0,0,0-1.83-1.13,6.57,6.57,0,0,0-2.23.8,7.11,7.11,0,0,0-.72.5.42.42,0,0,0,0,.31A5.14,5.14,0,0,0,78.85,97C79.6,97.64,80.76,96.6,81.33,96Z" transform="translate(-0.83)"/><path class="cls-8" d="M60.74,79.29c3.46.78,8-.93,11.34-1.81,1.73-.47,3.73-1,4.87-2.27a21.34,21.34,0,0,1-20.48.33A5.89,5.89,0,0,0,60.74,79.29Z" transform="translate(-0.83)"/><path class="cls-10" d="M56.47,75.54A21.34,21.34,0,0,0,77,75.21a3.53,3.53,0,0,0,.9-2.14,3.36,3.36,0,0,0-.34-2.39,3.71,3.71,0,0,0-1.15-1.37c-2.51-2-7.69-1.83-10.66-1.62-2.71.19-5.66.47-7.63,2.22a5.44,5.44,0,0,0-1.34,1.8,5.27,5.27,0,0,0-.32,3.64Z" transform="translate(-0.83)"/><path class="cls-7" d="M73.33,74.88c1.06-.39,2.1-1.19,2.16-2.25a2.65,2.65,0,0,0-1.56-2.5,8.67,8.67,0,0,0-3.22-.38,8.06,8.06,0,0,0-1.2.17.63.63,0,0,0-.25.36,7,7,0,0,0,.45,4.26C70.22,75.83,72.27,75.27,73.33,74.88Z" transform="translate(-0.83)"/><rect class="cls-16" x="86.64" y="34.74" width="56.83" height="22.36" rx="4.43" ry="4.43" transform="translate(-1.67 2.15) rotate(-1.07)"/><path class="cls-16" d="M96.68,55.34c0,.39-3.05,10.55-3.05,10.55L104.2,54.21Z" transform="translate(-0.83)"/><path class="cls-17" d="M133.51,50.67a5.44,5.44,0,0,1-.15-10.88h.15a5.44,5.44,0,0,1,.14,10.88Z" transform="translate(-0.83)"/><path class="cls-16" d="M133.51,40.21a5,5,0,0,1,.13,10h-.13a5,5,0,0,1-.13-10h.13m0-.83h-.16a5.85,5.85,0,0,0,.16,11.7h.15a5.85,5.85,0,0,0-.15-11.7Z" transform="translate(-0.83)"/><path class="cls-16" d="M130.87,44.46a2.55,2.55,0,0,0,1.22.91l1.31.62a.38.38,0,0,1,.2.17.32.32,0,0,1,0,.25c-.14.32-.34.69-.16,1s.35.25.5.4c.49.47,0,1.36.41,1.93l2.35-2.43a.44.44,0,0,0,.15-.25.46.46,0,0,0-.21-.32A6.89,6.89,0,0,0,134,45.5a2.77,2.77,0,0,1-1-.33.78.78,0,0,1-.35-.9c.18,0,.34.12.52.18a1,1,0,0,0,1.05-.48c.24-.33.37-.74.6-1.08a2.28,2.28,0,0,1,1.37-1,1,1,0,0,0-.94-.42,1.85,1.85,0,0,0-1,.43c-.15.12-.38.26-.52.13a.35.35,0,0,1-.1-.19,1.23,1.23,0,0,1,.53-1.29c-.09.06-.64-.08-.79-.07a3.19,3.19,0,0,0-2.31.71A3.49,3.49,0,0,0,130.87,44.46Z" transform="translate(-0.83)"/><path class="cls-16" d="M137.61,43.56c-.1.23-.19.46-.29.7a1.43,1.43,0,0,0-.16.57.55.55,0,0,0,.25.51.52.52,0,0,0,.64-.32,2,2,0,0,0-.32-1.61" transform="translate(-0.83)"/><path class="cls-18" d="M111.55,49.72h-.1A1.41,1.41,0,0,1,110,48.34l-.1-3.57a1.42,1.42,0,0,1,1.39-1.46l6.45-.17a1.44,1.44,0,0,1,1.46,1.38l.09,3.57a1.41,1.41,0,0,1-1.38,1.46l-4.64.12-1.68,1.94Z" transform="translate(-0.83)"/><path class="cls-16" d="M117.78,43.55a1,1,0,0,1,1,1l.09,3.57a1,1,0,0,1-1,1l-4.83.13L112,50.53l0-1.23h-.53a1,1,0,0,1-1-1l-.09-3.57a1,1,0,0,1,1-1l6.45-.17h0m0-.83h0l-6.46.17a1.83,1.83,0,0,0-1.78,1.88l.09,3.57a1.83,1.83,0,0,0,1.56,1.77v.43l.06,2.14,1.4-1.62.85-1,4.46-.11a1.84,1.84,0,0,0,1.79-1.89l-.1-3.57a1.82,1.82,0,0,0-1.83-1.79Z" transform="translate(-0.83)"/><path class="cls-19" d="M120.26,46.56l-4.65.12a1.43,1.43,0,0,1-1.46-1.38l-.09-3.58a1.42,1.42,0,0,1,1.38-1.45l6.46-.17a1.41,1.41,0,0,1,1.46,1.38l.09,3.57a1.43,1.43,0,0,1-1.38,1.46H122l0,1.89Z" transform="translate(-0.83)"/><path class="cls-16" d="M121.94,40.51a1,1,0,0,1,1,1l.09,3.57a1,1,0,0,1-1,1h-.5l0,1.24-1.16-1.21-4.83.13h0a1,1,0,0,1-1-1l-.1-3.58a1,1,0,0,1,1-1l6.45-.17h0m0-.83h0l-6.46.17a1.87,1.87,0,0,0-1.28.57,1.81,1.81,0,0,0-.5,1.32l.09,3.57a1.82,1.82,0,0,0,1.84,1.78l4.51-.11.9.94,1.48,1.54-.06-2.14v-.43A1.86,1.86,0,0,0,123.87,45l-.1-3.57a1.82,1.82,0,0,0-1.83-1.79Z" transform="translate(-0.83)"/><path class="cls-20" d="M96.13,49.4a3.93,3.93,0,0,1,2.76-3.77,3.23,3.23,0,0,1-.57-1.75A2.6,2.6,0,0,1,100.58,41h0a2.59,2.59,0,0,1,2.4,2.73,3.1,3.1,0,0,1-.47,1.76,3.89,3.89,0,0,1,2.92,3.63v.41l-9.28.24Z" transform="translate(-0.83)"/><path class="cls-16" d="M100.63,41.44a2.2,2.2,0,0,1,1.94,2.33,2.56,2.56,0,0,1-.83,2A3.47,3.47,0,0,1,105,49.15l-8.47.23a3.54,3.54,0,0,1,3.15-3.53,2.52,2.52,0,0,1-1-2,2.18,2.18,0,0,1,1.85-2.43h0m0-.82h-.06a3,3,0,0,0-2.66,3.27,3.71,3.71,0,0,0,.38,1.53,4.25,4.25,0,0,0-2.57,4l0,.81.81,0L105,50l.8,0v-.8a4.22,4.22,0,0,0-2.73-3.88,3.73,3.73,0,0,0,.29-1.53,3,3,0,0,0-2.77-3.13Z" transform="translate(-0.83)"/><path class="cls-21" d="M90.79,50.57a3.94,3.94,0,0,1,2.76-3.77A3.2,3.2,0,0,1,93,45.06a2.6,2.6,0,0,1,2.26-2.85h0a2.59,2.59,0,0,1,2.4,2.73,3.1,3.1,0,0,1-.47,1.76,3.89,3.89,0,0,1,2.92,3.63v.4L90.81,51Z" transform="translate(-0.83)"/><path class="cls-16" d="M95.29,42.62A2.2,2.2,0,0,1,97.23,45a2.56,2.56,0,0,1-.83,2,3.47,3.47,0,0,1,3.27,3.36l-8.47.22A3.53,3.53,0,0,1,94.35,47a2.54,2.54,0,0,1-.95-2,2.18,2.18,0,0,1,1.85-2.43h0m0-.83h-.06a3,3,0,0,0-2.66,3.28A3.75,3.75,0,0,0,93,46.6a4.25,4.25,0,0,0-2.57,4l0,.81.81,0,8.48-.22.8,0v-.81a4.22,4.22,0,0,0-2.73-3.87,3.73,3.73,0,0,0,.29-1.53,3,3,0,0,0-2.77-3.14Z" transform="translate(-0.83)"/><path class="cls-16" d="M140.38,121.24A24.18,24.18,0,0,0,154,113.45L133,97.64a3.32,3.32,0,0,0-4.61.64c-5.37,7.8-14.81,14.83-19.33,17.94a2.49,2.49,0,0,0-.44,3.87l1.39,1.42C119.29,125.23,130.38,123.39,140.38,121.24Z" transform="translate(-0.83)"/><g class="cls-22"><path class="cls-23" d="M145.24,127.82a26.64,26.64,0,0,0,15.3-10L136.89,97.62a3.44,3.44,0,0,0-5.18.82c-6,10-16.65,19-21.74,23a3.44,3.44,0,0,0-.48,4.95l1.55,1.81C121.53,132.92,134,130.57,145.24,127.82Z" transform="translate(-0.83)"/><path class="cls-23" d="M179.67,136.28l-19.13-18.42a26.64,26.64,0,0,1-15.3,10c-11.25,2.75-23.71,5.1-34.2.34l23,27.15a3.44,3.44,0,0,0,3.68,1L169,146.13l.26-.1,9.46-3.95A3.45,3.45,0,0,0,179.67,136.28Z" transform="translate(-0.83)"/><g class="cls-24"><path d="M159.7,117.44c-6.56,1.33-12.66,3.83-17,9.47-1.63,2.11-3.42,4.06-4.85,6.28a12.57,12.57,0,0,1-3.35,3.43c-3.37,2.5-6.89,4.75-10.81,5.74l8.55,8.9c1.26-.76,2.49-1.61,3.7-2.5a14.34,14.34,0,0,0,3.71-3.7c1.47-2.2,3.22-4.17,4.85-6.28C151,130.4,161.25,129,171.24,128Z" transform="translate(-0.83)"/></g></g></g></svg>